<svg width="43" height="42" viewBox="0 0 43 42" fill="none" xmlns="http://www.w3.org/2000/svg">
<path d="M21.5 19.25C22.9843 19.25 24.1875 18.0747 24.1875 16.625C24.1875 15.1753 22.9843 14 21.5 14C20.0157 14 18.8125 15.1753 18.8125 16.625C18.8125 18.0747 20.0157 19.25 21.5 19.25Z" fill="#2E4623"/>
<path d="M21.5 3.5C17.7232 3.49982 14.099 4.95558 11.4151 7.55088C8.73116 10.1462 7.20439 13.6713 7.16663 17.36C7.16663 26.95 19.7979 37.625 20.3354 38.08C20.6599 38.3511 21.0729 38.5001 21.5 38.5001C21.927 38.5001 22.34 38.3511 22.6645 38.08C23.2916 37.625 35.8333 26.95 35.8333 17.36C35.7955 13.6713 34.2688 10.1462 31.5848 7.55088C28.9009 4.95558 25.2767 3.49982 21.5 3.5ZM21.5 22.75C20.2597 22.75 19.0473 22.3908 18.0161 21.7178C16.9848 21.0447 16.1811 20.0881 15.7065 18.9689C15.2318 17.8497 15.1077 16.6182 15.3496 15.4301C15.5916 14.2419 16.1888 13.1506 17.0658 12.294C17.9428 11.4374 19.0602 10.854 20.2766 10.6177C21.493 10.3814 22.7539 10.5027 23.8997 10.9662C25.0455 11.4298 26.0249 12.2149 26.714 13.2221C27.403 14.2294 27.7708 15.4136 27.7708 16.625C27.7708 18.2494 27.1101 19.8074 25.9341 20.956C24.7581 22.1047 23.1631 22.75 21.5 22.75Z" fill="#2E4623"/>
</svg>
